<svg width="512" height="512" viewBox="0 0 512 512" fill="none" xmlns="http://www.w3.org/2000/svg">
  <rect width="512" height="512" rx="110" fill="#0a0a0a"/>
  <path d="M112 144H400C426.51 144 448 165.49 448 192V320C448 346.51 426.51 368 400 368H327.994L267.311 416.546C261.277 421.373 252.544 421.602 246.257 417.098L192 368H112C85.4903 368 64 346.51 64 320V192C64 165.49 85.4903 144 112 144Z" fill="#CCFF00"/>
  <path d="M256 220L266.791 245.209L292 256L266.791 266.791L256 292L245.209 266.791L220 256L245.209 245.209L256 220Z" fill="#000000"/>
</svg>
